<?xml version="1.0" encoding="utf-8"?>
<!-- Generator: Adobe Illustrator 27.5.0, SVG Export Plug-In . SVG Version: 6.00 Build 0)  -->
<svg version="1.1" id="Layer_1" xmlns="http://www.w3.org/2000/svg" xmlns:xlink="http://www.w3.org/1999/xlink" x="0px" y="0px"
	 viewBox="0 0 1683.8 1190.6" style="enable-background:new 0 0 1683.8 1190.6;" xml:space="preserve">
<style type="text/css">
	.st0{fill:#FFFFFF;stroke:#000000;stroke-miterlimit:10;}
	.st1{fill:none;stroke:#000000;stroke-miterlimit:10;}
</style>
<g>
	<ellipse class="st0" cx="867.5" cy="670.2" rx="467.7" ry="386.2"/>
	<line class="st1" x1="501.3" y1="599.6" x2="501.3" y2="599.6"/>
	<path class="st1" d="M867.5,331.7c4.7,0,8.5,3.8,8.5,8.5c0,4.7-3.8,8.5-8.5,8.5s-8.5-3.8-8.5-8.5
		C859,335.5,862.8,331.7,867.5,331.7z M477.3,590c4.7,0,8.5,3.8,8.5,8.5c0,4.7-3.8,8.5-8.5,8.5c-4.7,0-8.5-3.8-8.5-8.5
		C468.8,593.8,472.6,590,477.3,590z M468.8,733c0-4.7,3.8-8.5,8.5-8.5c4.7,0,8.5,3.8,8.5,8.5c0,4.7-3.8,8.5-8.5,8.5
		C472.6,741.5,468.8,737.7,468.8,733z M867.5,1008.8c-4.7,0-8.5-3.8-8.5-8.5c0-4.7,3.8-8.5,8.5-8.5s8.5,3.8,8.5,8.5
		C876,1005,872.2,1008.8,867.5,1008.8z M1277.8,669.7c0,4.7-3.8,8.5-8.5,8.5s-8.5-3.8-8.5-8.5c0-4.7,3.8-8.5,8.5-8.5
		S1277.8,665.1,1277.8,669.7z"/>
	<line class="st1" x1="867.5" y1="1011.7" x2="867.5" y2="1011.7"/>
</g>
</svg>
