<?xml version="1.0" encoding="utf-8"?>
<!-- Generator: Adobe Illustrator 27.5.0, SVG Export Plug-In . SVG Version: 6.00 Build 0)  -->
<svg version="1.1" id="Layer_1" xmlns="http://www.w3.org/2000/svg" xmlns:xlink="http://www.w3.org/1999/xlink" x="0px" y="0px"
	 viewBox="0 0 2816.4 217.7" style="enable-background:new 0 0 2816.4 217.7;" xml:space="preserve">
<style type="text/css">
	.st0{fill:none;stroke:#000000;stroke-width:0.5669;stroke-linecap:round;stroke-linejoin:round;stroke-miterlimit:11.3386;}
</style>
<path class="st0" d="M192.6,53.9 M252.2,133.8V36.9 M260.7,150.8V53.9 M269.2,133.8V36.9 M277.7,150.8V53.9 M286.2,133.8V36.9
	 M294.7,150.8V53.9 M303.2,133.8V36.9 M311.7,150.8V53.9 M320.2,133.8V36.9 M328.7,150.8V53.9 M337.2,133.8V36.9 M345.7,150.8V53.9
	 M354.2,133.8V36.9 M362.7,150.8V53.9 M371.2,133.8V36.9 M379.7,150.8V53.9 M388.2,133.8V36.9 M396.7,150.8V53.9 M405.2,133.8V36.9
	 M413.7,150.8V53.9 M422.2,133.8V36.9 M430.8,150.8V53.9 M439.3,133.8V36.9 M447.8,150.8V53.9 M456.3,133.8V36.9 M464.8,150.8V53.9
	 M473.3,133.8V36.9 M481.8,150.8V53.9 M490.3,133.8V36.9 M498.8,150.8V53.9 M507.3,133.8V36.9 M515.8,150.8V53.9 M524.3,133.8V36.9
	 M532.8,150.8V53.9 M541.3,133.8V36.9 M549.8,150.8V53.9 M558.3,133.8V36.9 M566.8,150.8V53.9 M575.3,133.8V36.9 M583.8,150.8V53.9
	 M592.3,133.8V36.9 M600.8,150.8V53.9 M609.3,133.8V36.9 M617.8,150.8V53.9 M626.3,133.8V36.9 M634.8,150.8V53.9 M643.3,133.8V36.9
	 M651.9,150.8V53.9 M660.4,133.8V36.9 M668.9,150.8V53.9 M677.4,133.8V36.9 M685.9,150.8V53.9 M694.4,133.8V36.9 M702.9,150.8V53.9
	 M711.4,133.8V36.9 M719.9,150.8V53.9 M728.4,133.8V36.9 M736.9,150.8V53.9 M745.4,133.8V36.9 M753.9,150.8V53.9 M762.4,133.8V36.9
	 M770.9,150.8V53.9 M779.4,133.8V36.9 M787.9,150.8V53.9 M796.4,133.8V36.9 M804.9,150.8V53.9 M813.4,133.8V36.9 M821.9,150.8V53.9
	 M830.4,133.8V36.9 M838.9,150.8V53.9 M847.4,133.8V36.9 M855.9,150.8V53.9 M864.5,133.8V36.9 M873,150.8V53.9 M881.5,133.8V36.9
	 M890,150.8V53.9 M898.5,133.8V36.9 M907,150.8V53.9 M915.5,133.8V36.9 M924,150.8V53.9 M932.5,133.8V36.9 M941,150.8V53.9
	 M949.5,133.8V36.9 M958,150.8V53.9 M966.5,133.8V36.9 M975,150.8V53.9 M983.5,133.8V36.9 M992,150.8V53.9 M1000.5,133.8V36.9
	 M1009,150.8V53.9 M1017.5,133.8V36.9 M1026,150.8V53.9 M1034.5,133.8V36.9 M1043,150.8V53.9 M1051.5,133.8V36.9 M1060,150.8V53.9
	 M1068.5,133.8V36.9 M1077,150.8V53.9 M1085.6,133.8V36.9 M1094.1,150.8V53.9 M1102.6,133.8V36.9 M1111.1,150.8V53.9 M1119.6,133.8
	V36.9 M1128.1,150.8V53.9 M1136.6,133.8V36.9 M1145.1,150.8V53.9 M1153.6,133.8V36.9 M1162.1,150.8V53.9 M1170.6,133.8V36.9
	 M1179.1,150.8V53.9 M1187.6,133.8V36.9 M1196.1,150.8V53.9 M1204.6,133.8V36.9 M1213.1,150.8V53.9 M1221.6,133.8V36.9
	 M1230.1,150.8V53.9 M1238.6,133.8V36.9 M1247.1,150.8V53.9 M1255.6,133.8V36.9 M1264.1,150.8V53.9 M1272.6,133.8V36.9
	 M1281.1,150.8V53.9 M1289.6,133.8V36.9 M1298.2,150.8V53.9 M1306.7,133.8V36.9 M1315.2,150.8V53.9 M1323.7,133.8V36.9
	 M1332.2,150.8V53.9 M1340.7,133.8V36.9 M1349.2,150.8V53.9 M1357.7,133.8V36.9 M1366.2,150.8V53.9 M1374.7,133.8V36.9
	 M1383.2,150.8V53.9 M1391.7,133.8V36.9 M1400.2,150.8V53.9 M1408.7,133.8V36.9 M1417.2,150.8V53.9 M1425.7,133.8V36.9
	 M1434.2,150.8V53.9 M1442.7,133.8V36.9 M1451.2,150.8V53.9 M1459.7,133.8V36.9 M1468.2,150.8V53.9 M1476.7,133.8V36.9
	 M1485.2,150.8V53.9 M1493.7,133.8V36.9 M1502.2,150.8V53.9 M1510.8,133.8V36.9 M1519.3,150.8V53.9 M1527.8,133.8V36.9
	 M1536.3,150.8V53.9 M1544.8,133.8V36.9 M1553.3,150.8V53.9 M1561.8,133.8V36.9 M1570.3,150.8V53.9 M1578.8,133.8V36.9
	 M1587.3,150.8V53.9 M1595.8,133.8V36.9 M1604.3,150.8V53.9 M1612.8,133.8V36.9 M1621.3,150.8V53.9 M1629.8,133.8V36.9
	 M1638.3,150.8V53.9 M1646.8,133.8V36.9 M1655.3,150.8V53.9 M1663.8,133.8V36.9 M1672.3,150.8V53.9 M1680.8,133.8V36.9
	 M1689.3,150.8V53.9 M1697.8,133.8V36.9 M1706.3,150.8V53.9 M1714.8,133.8V36.9 M1723.3,150.8V53.9 M1731.9,133.8V36.9
	 M1740.4,150.8V53.9 M1748.9,133.8V36.9 M1757.4,150.8V53.9 M1765.9,133.8V36.9 M1774.4,150.8V53.9 M1782.9,133.8V36.9
	 M1791.4,150.8V53.9 M1799.9,133.8V36.9 M1808.4,150.8V53.9 M1816.9,133.8V36.9 M1825.4,150.8V53.9 M1833.9,133.8V36.9
	 M1842.4,150.8V53.9 M1850.9,133.8V36.9 M1859.4,150.8V53.9 M1867.9,133.8V36.9 M1876.4,150.8V53.9 M1884.9,133.8V36.9
	 M1893.4,150.8V53.9 M1901.9,133.8V36.9 M1910.4,150.8V53.9 M1918.9,133.8V36.9 M1927.4,150.8V53.9 M1935.9,133.8V36.9
	 M1944.5,150.8V53.9 M1953,133.8V36.9 M1961.5,150.8V53.9 M1970,133.8V36.9 M1978.5,150.8V53.9 M1987,133.8V36.9 M1995.5,150.8V53.9
	 M2004,133.8V36.9 M2012.5,150.8V53.9 M2021,133.8V36.9 M2029.5,150.8V53.9 M2038,133.8V36.9 M2046.5,150.8V53.9 M2055,133.8V36.9
	 M2063.5,150.8V53.9 M2072,133.8V36.9 M2080.5,150.8V53.9 M2089,133.8V36.9 M2097.5,150.8V53.9 M2106,133.8V36.9 M2114.5,150.8V53.9
	 M2123,133.8V36.9 M2131.5,150.8V53.9 M2140,133.8V36.9 M2148.5,150.8V53.9 M2157,133.8V36.9 M2165.6,150.8V53.9 M2174.1,133.8V36.9
	 M2182.6,150.8V53.9 M2191.1,133.8V36.9 M2199.6,150.8V53.9 M2208.1,133.8V36.9 M2216.6,150.8V53.9 M2225.1,133.8V36.9
	 M2233.6,150.8V53.9 M2242.1,133.8V36.9 M2250.6,150.8V53.9 M2259.1,133.8V36.9 M2267.6,150.8V53.9 M2276.1,133.8V36.9
	 M2284.6,150.8V53.9 M2293.1,133.8V36.9 M2301.6,150.8V53.9 M2310.1,133.8V36.9 M2318.6,150.8V53.9 M2327.1,133.8V36.9
	 M2335.6,150.8V53.9 M2344.1,133.8V36.9 M2352.6,150.8V53.9 M2361.1,133.8V36.9 M2369.6,150.8V53.9 M2378.2,133.8V36.9
	 M2386.7,150.8V53.9 M2395.2,133.8V36.9 M2403.7,150.8V53.9 M2412.2,133.8V36.9 M2420.7,150.8V53.9 M2429.2,133.8V36.9
	 M2437.7,150.8V53.9 M2446.2,133.8V36.9 M2454.7,150.8V53.9 M2463.2,133.8V36.9 M2471.7,150.8V53.9 M2480.2,133.8V36.9
	 M2488.7,150.8V53.9 M2497.2,133.8V36.9 M2505.7,150.8V53.9 M2514.2,133.8V36.9 M2522.7,150.8V53.9 M2531.2,133.8V36.9
	 M2539.7,150.8V53.9 M2548.2,133.8V36.9 M2556.7,150.8V53.9 M2565.2,133.8V36.9 M2573.7,150.8V53.9 M2582.2,133.8V36.9
	 M2590.8,150.8V53.9 M2599.3,133.8V36.9"/>
<path class="st0" d="M243.7,150.8"/>
<path class="st0" d="M158.6,93.8"/>
<polyline class="st0" points="2607.8,93.8 2641.9,93.8 2641.9,36.9 158.6,36.9 158.6,93.8 192.6,93.8 192.6,150.8 2607.8,150.8 
	2607.8,93.8 2607.8,53.9 "/>
<line class="st0" x1="192.6" y1="53.9" x2="192.6" y2="93.8"/>
<line class="st0" x1="201.1" y1="133.8" x2="201.1" y2="36.9"/>
<line class="st0" x1="209.7" y1="150.8" x2="209.7" y2="53.9"/>
<line class="st0" x1="218.2" y1="133.8" x2="218.2" y2="36.9"/>
<line class="st0" x1="226.7" y1="150.8" x2="226.7" y2="53.9"/>
<line class="st0" x1="235.2" y1="133.8" x2="235.2" y2="36.9"/>
<line class="st0" x1="243.7" y1="150.8" x2="243.7" y2="53.9"/>
</svg>
