<?xml version="1.0" encoding="utf-8"?>
<!-- Generator: Adobe Illustrator 27.5.0, SVG Export Plug-In . SVG Version: 6.00 Build 0)  -->
<svg version="1.1" id="Layer_1" xmlns="http://www.w3.org/2000/svg" xmlns:xlink="http://www.w3.org/1999/xlink" x="0px" y="0px"
	 viewBox="0 0 1683.8 1190.6" style="enable-background:new 0 0 1683.8 1190.6;" xml:space="preserve">
<style type="text/css">
	.st0{fill:none;stroke:#000000;stroke-miterlimit:10;}
</style>
<line class="st0" x1="433.1" y1="524.9" x2="433.1" y2="524.9"/>
<line class="st0" x1="432.9" y1="665.6" x2="432.9" y2="665.6"/>
<path class="st0" d="M799.4,226.8c-248.9,0-450.7,165-450.7,368.5c0,203.5,201.8,368.5,450.7,368.5s450.7-165,450.7-368.5
	C1250.1,391.8,1048.3,226.8,799.4,226.8z M799.4,257.7c4.7,0,8.5,3.8,8.5,8.4c0,4.7-3.8,8.4-8.5,8.4s-8.5-3.8-8.5-8.4
	C790.9,261.5,794.7,257.7,799.4,257.7z M409.1,515.3c4.7,0,8.5,3.8,8.5,8.4c0,4.7-3.8,8.4-8.5,8.4c-4.7,0-8.5-3.8-8.5-8.4
	C400.6,519.1,404.4,515.3,409.1,515.3z M400.6,657.9c0-4.7,3.8-8.4,8.5-8.4c4.7,0,8.5,3.8,8.5,8.4c0,4.7-3.8,8.4-8.5,8.4
	C404.4,666.4,400.6,662.6,400.6,657.9z M799.4,932.9c-4.7,0-8.5-3.8-8.5-8.4c0-4.7,3.8-8.4,8.5-8.4s8.5,3.8,8.5,8.4
	C807.9,929.1,804.1,932.9,799.4,932.9z M866.7,932.7c-13.3,1.8-35.2-8.5-35.2-21.8v-7.5c0-18.6-9-13.9-32.5-13.9
	c-23.5,0-32.5-4.7-32.5,13.9v7.5c0,13.3-21.9,23.6-35.2,21.8c-130.6-17.5-240.8-84.4-301-176.5c-25.6-39.2,2.5-90.9,49.5-90.9h0.6
	c54.8,0,64.2-31.5,64.2-70.4c0-38.9-9.4-70.4-64.2-70.4c-34.8,0-59.2-28.3-59.2-58.9c0-10.8,3-21.9,9.8-32.1
	c32.3-49.1,78.9-90.9,135.1-121.9c10.6-5.8,22.3-9.3,35.2-3.2c5.4,2.6,11.3,3.8,17.3,3.8h363.8c6.1,0,12.1-1.6,17.6-4.3
	c10.9-5.4,22.1-2,32.3,3.7c89,48.9,153.7,125,176.3,213.8c3.5,13.9-7.1,37.3-21.5,37.3h-3.7c-18.8,0-14,9-14,32.3
	c0,23.3-4.8,32.3,14,32.3h3.9c14.4,0,25,23.4,21.5,37.2C1174.3,802.4,1037.9,910,866.7,932.7z M1209.6,594.8c0,4.7-3.8,8.4-8.5,8.4
	c-4.7,0-8.5-3.8-8.5-8.4c0-4.7,3.8-8.4,8.5-8.4C1205.8,586.4,1209.6,590.1,1209.6,594.8z"/>
<line class="st0" x1="799.4" y1="935.9" x2="799.4" y2="935.8"/>
</svg>
