<?xml version="1.0" encoding="utf-8"?>
<!-- Generator: Adobe Illustrator 27.5.0, SVG Export Plug-In . SVG Version: 6.00 Build 0)  -->
<svg version="1.1" id="Layer_1" xmlns="http://www.w3.org/2000/svg" xmlns:xlink="http://www.w3.org/1999/xlink" x="0px" y="0px"
	 viewBox="0 0 1683.8 1190.6" style="enable-background:new 0 0 1683.8 1190.6;" xml:space="preserve">
<style type="text/css">
	.st0{fill:none;stroke:#000000;stroke-miterlimit:10;}
</style>
<path class="st0" d="M629.8,194c-9.8,0-19.4,2.2-28.1,6.7c-120.7,61.3-201,170.5-201,295.1c0,191.8,190.4,347.2,425.2,347.2
	s425.2-155.5,425.2-347.2c0-124.4-80.2-233.6-200.6-294.9c-8.7-4.4-18.4-6.7-28.1-6.7L629.8,194z M825.9,127.2
	c-248.9,0-450.7,165-450.7,368.5S577,864.2,825.9,864.2s450.7-165,450.7-368.5S1074.8,127.2,825.9,127.2z"/>
<line class="st0" x1="559.6" y1="821.2" x2="559.6" y2="821.1"/>
</svg>
